<svg xmlns="http://www.w3.org/2000/svg" viewBox="0 0 88.98 126.02"><defs><style>.cls-1{fill:#33425e;}.cls-2{fill:#fff;}</style></defs><title>Recurso 1</title><g id="Capa_2" data-name="Capa 2"><g id="Mesa_2" data-name="Mesa 2"><path class="cls-1" d="M8.47,123.62c4.7-4.6,9-8.8,13.9-13.5-3.5,0-6.1.1-8.6,0-5.7-.2-10.09-2.7-12.7-7.9a9.17,9.17,0,0,1-1-3.9C0,73.82,0,49.42.07,24.92c0-5.7,6.2-11.3,12.7-11.7,1.1-.1,2.21,0,3.41,0,1-7,4.9-12.2,11.59-12.7a252.81,252.81,0,0,1,33.71.1c5.9.4,10.09,6.1,10.7,12.3a14.92,14.92,0,0,0,2.09.2c8.6.1,14.71,6.2,14.71,14.8v67.4c0,8.6-5.5,14.4-14.1,14.7-2.6.1-5.2,0-8.5,0,4.8,4.6,9.1,8.7,13.4,12.9-.2.2-.4.5-.6.7-3.6.3-7,.8-9.9-2.7a109.86,109.86,0,0,0-9.7-9.6,5,5,0,0,0-3.1-1.2q-12.15-.15-24.3,0a5.65,5.65,0,0,0-3.3,1.3c-2.9,2.6-5.7,5.4-8.4,8.1C15.87,124,15.87,124,8.47,123.62Zm27.8-63.1V48.82c0-2.9-.9-3.9-3.7-3.9H8.87c-2.5,0-3.7,1.2-3.7,3.7v23.7c0,2.9.8,3.7,3.8,3.7h23.2c3.3,0,4-.8,4.1-4C36.37,68.12,36.27,64.32,36.27,60.52Zm15.9,12c0,2.4,1.1,3.5,3.5,3.5h24c2.4,0,3.6-1.2,3.7-3.4q.15-12.15,0-24.3c0-2.1-1.2-3.4-3.5-3.4H55.57c-2.4,0-3.4,1.2-3.4,3.6m31.1-19.1c.4-7.3-3.8-11.3-10.7-10.7-1.2.1-2.4.2-3.5.2-18.3-.1-36.5-.2-54.8-.2-6.2,0-10.3,4.8-9,10.8C31.27,29.42,57.17,29.42,83.27,29.42ZM21.87,13h44.5a7.19,7.19,0,0,0-7-7.2c-10-.3-19.9-.3-29.9-.1C25.27,5.82,22.67,8.72,21.87,13Z"/><path class="cls-2" d="M28.27,91.72a9.23,9.23,0,0,1-9.4,9.5,9.65,9.65,0,0,1-9.6-9.5,9.43,9.43,0,0,1,9.6-9.4A9.15,9.15,0,0,1,28.27,91.72Zm-9.4,3.9a4.22,4.22,0,0,0,4-4,4.1,4.1,0,0,0-3.9-3.8,3.87,3.87,0,0,0-4,3.9A3.78,3.78,0,0,0,18.87,95.62Z"/><path class="cls-2" d="M79,91.82a9.5,9.5,0,1,1-19-.1,9.37,9.37,0,0,1,9.6-9.4A9.17,9.17,0,0,1,79,91.82Zm-5.5-.2a4.09,4.09,0,0,0-4.2-3.8,4,4,0,0,0-3.8,4.2,4,4,0,0,0,4,3.7A4.16,4.16,0,0,0,73.47,91.62Z"/><path class="cls-1" d="M58.77,118.72H29.27a.32.32,0,0,1-.3-.3v-3.7a.32.32,0,0,1,.3-.3h29.5a.32.32,0,0,1,.3.3v3.7A.32.32,0,0,1,58.77,118.72Z"/><path class="cls-1" d="M68.27,126H20.67a.32.32,0,0,1-.3-.3v-4a.32.32,0,0,1,.3-.3h47.6a.32.32,0,0,1,.3.3v4A.32.32,0,0,1,68.27,126Z"/></g></g></svg>